<svg width="230" height="30" viewBox="0 0 230 30" fill="none" xmlns="http://www.w3.org/2000/svg">
<g clip-path="url(#clip0_371_2796)">
<path d="M177.499 0.145996H172.435H169.33H168.351H165.245H160.177C159.459 0.145996 158.869 0.741942 158.869 1.46762V3.77843C158.869 4.5041 159.459 5.10005 160.177 5.10005H165.658C165.658 5.10005 166.388 5.13248 166.388 6.43789V6.76627V27.219C166.388 27.9446 166.978 28.5406 167.696 28.5406H169.984C170.702 28.5406 171.292 27.9446 171.292 27.219V6.76627V6.43789C171.292 5.13248 172.022 5.10005 172.022 5.10005H177.503C178.221 5.10005 178.811 4.5041 178.811 3.77843V1.46762C178.803 0.741942 178.217 0.145996 177.499 0.145996Z" fill="white"/>
<path d="M156.73 23.7568H148.902V21.7743V17.3959C148.902 17.3959 148.934 16.7432 150.017 16.6662H155.266C155.984 16.6662 156.574 16.0703 156.574 15.3446V13.0338C156.574 12.3081 155.984 11.7122 155.266 11.7122H150.081C148.934 11.6595 148.902 10.9784 148.902 10.9784V6.93243V5.67162C148.902 5.67162 148.93 5.06351 149.905 4.95405H156.341C157.059 4.95405 157.649 4.35811 157.649 3.63243V1.32162C157.649 0.595946 157.059 0 156.341 0H147.59H145.571H145.302C144.584 0 143.994 0.595946 143.994 1.32162V6.93243V21.7743V23.7568V27.3892V28.7108H145.302H147.59H156.722C157.44 28.7108 158.03 28.1149 158.03 27.3892V25.0784C158.034 24.3486 157.448 23.7568 156.73 23.7568Z" fill="white"/>
<path d="M140.981 21.4338V20.2986V6.46216V1.23243C140.981 0.555405 140.391 0 139.673 0H137.386C136.668 0 136.078 0.555405 136.078 1.23243V6.46622L135.981 19.0946L135.973 19.0905L135.203 17.9595C135.203 17.9595 125.099 2.07162 124.489 1.07027C123.88 0.068919 123.121 0.12973 123.121 0.12973H118.647C118.647 0.12973 118.455 0.0972973 118.455 0.227027C118.459 0.555405 118.595 0.782432 118.595 0.782432L130.966 19.4716C130.966 19.4716 135.66 26.6676 136.347 27.5311C137.033 28.3905 137.029 28.5689 138.995 28.5689C140.961 28.5689 141.017 25.877 141.017 25.877L140.981 21.4338Z" fill="white"/>
<path d="M62.6242 0.312012H54.7837H52.4966C51.7783 0.312012 51.1885 0.907958 51.1885 1.63363V27.389C51.1885 28.1147 51.7783 28.7107 52.4966 28.7107H54.7837C55.502 28.7107 56.0918 28.1147 56.0918 27.389V18.2188C56.0918 18.2188 56.1239 17.4809 57.4159 17.4809H57.741H61.3201C62.0384 17.4809 62.6282 16.885 62.6282 16.1593V13.8485C62.6282 13.1228 62.0384 12.5269 61.3201 12.5269H56.7699C56.2764 12.389 56.1319 12.1012 56.0878 11.9553V5.99985C56.0878 5.99985 56.1199 5.26201 57.4119 5.26201H57.7369H62.6202C63.3384 5.26201 63.9283 4.66607 63.9283 3.94039V1.62958C63.9323 0.907958 63.3425 0.312012 62.6242 0.312012Z" fill="white"/>
<path d="M80.1109 0.162109C71.8973 0.162109 65.2405 6.66076 65.2405 14.6756C65.2405 22.6905 71.8973 29.1891 80.1109 29.1891C88.3246 29.1891 94.9814 22.6905 94.9814 14.6756C94.9814 6.66076 88.3206 0.162109 80.1109 0.162109ZM80.1109 24.0851C74.7863 24.0851 70.4688 19.8729 70.4688 14.6756C70.4688 9.47832 74.7863 5.26616 80.1109 5.26616C85.4356 5.26616 89.7491 9.47832 89.7491 14.6756C89.7491 19.8729 85.4356 24.0851 80.1109 24.0851Z" fill="white"/>
<path d="M110.305 19.4674C110.979 19.0782 111.742 18.9404 112.456 18.6525C113.15 18.3728 113.812 18.0161 114.426 17.5904C115.654 16.739 116.701 15.608 117.432 14.2904C117.985 13.2931 118.338 12.1782 118.431 11.035C118.68 7.9539 117.664 4.98633 115.449 2.83768C114.093 1.52012 112.284 0.88363 110.446 0.567413C108.11 0.170116 105.695 0.352549 103.34 0.34444C102.505 0.340386 101.666 0.340386 100.832 0.336332L100.8 0.34444C100.186 0.34444 99.7684 0.34444 99.6882 0.34444C99.5557 0.34444 99.4153 0.332278 99.2749 0.328224C99.1705 0.328224 99.0702 0.328224 98.9659 0.328224C98.8495 0.332278 98.7332 0.34444 98.6208 0.376873C98.0631 0.530927 97.6618 1.06201 97.6618 1.64579V2.23363L97.6418 2.77687V5.27822C97.6377 6.12147 97.6378 6.96877 97.6337 7.81201C97.6297 8.65525 97.6297 9.50255 97.6257 10.3458C97.6217 11.189 97.6217 12.0363 97.6177 12.8796C97.6137 13.7228 97.6137 14.5701 97.6097 15.4134C97.6056 16.2566 97.6056 17.1039 97.6016 17.9471C97.5976 18.7904 97.5976 19.6377 97.5936 20.4809C97.5936 20.7161 97.5896 20.9512 97.5896 21.1863V27.2917C97.5896 27.7661 97.8504 28.1836 98.2356 28.4147C98.2838 28.4593 98.3319 28.4877 98.3761 28.4917C98.3801 28.4917 98.3841 28.4917 98.3841 28.4917C98.5486 28.5647 98.7332 28.6053 98.9258 28.6053H99.9771H101.265C101.454 28.6053 101.634 28.5647 101.799 28.4917C101.931 28.4431 102.04 28.3782 102.12 28.289C102.184 28.2363 102.24 28.1755 102.296 28.1147C102.489 27.8877 102.605 27.5998 102.605 27.2877V21.1904H102.609C102.617 20.2498 102.561 17.5093 102.557 17.0755C102.549 13.5485 102.549 10.0174 102.561 6.49039C102.561 6.1012 102.481 5.51741 102.838 5.34714C103.223 5.16876 104.178 5.22958 104.608 5.22958C105.759 5.23363 106.915 5.23768 108.066 5.24174C109.029 5.24579 110.02 5.2539 110.919 5.61471C111.377 5.8012 111.802 6.07282 112.151 6.42552C113.981 8.27822 113.872 11.8093 111.983 13.5688C111.008 14.4769 109.687 14.8985 108.387 15.158C107.456 15.3404 106.513 15.4539 105.587 15.6404C104.744 15.8107 103.945 15.9566 103.356 16.6174C101.935 18.2147 103.62 20.0431 104.764 21.1944H104.752L105.442 21.9607L111.437 28.6296H112.127H112.801H117.909H118.166L117.917 28.358L117.861 28.2971L116.709 27.0363L116.224 26.5012L114.719 24.8553C114.551 24.685 114.382 24.5147 114.214 24.3404C113.499 23.5944 112.801 22.8323 112.099 22.0701C111.83 21.7782 111.565 21.4863 111.296 21.1944C110.947 20.8093 110.602 20.4242 110.261 20.0309C110.117 19.8647 110.049 19.6134 110.305 19.4674Z" fill="white"/>
</g>
<defs>
<clipPath id="clip0_371_2796">
<rect width="229" height="29.1892" fill="white" transform="translate(0.5)"/>
</clipPath>
</defs>
</svg>
